<?xml version="1.0" standalone="no"?>
<!DOCTYPE svg PUBLIC "-//W3C//DTD SVG 20010904//EN"
 "http://www.w3.org/TR/2001/REC-SVG-20010904/DTD/svg10.dtd">
<svg version="1.0" xmlns="http://www.w3.org/2000/svg"
 width="3450.000000pt" height="1044.000000pt" viewBox="0 0 3450.000000 1044.000000"
 preserveAspectRatio="xMidYMid meet">
<metadata>
Created by potrace 1.16, written by Peter Selinger 2001-2019
</metadata>
<g transform="translate(0.000000,1044.000000) scale(0.100000,-0.100000)"
fill="#000000" stroke="none">
<path d="M0 5220 l0 -5220 17250 0 17250 0 0 5220 0 5220 -17250 0 -17250 0 0
-5220z m7890 2993 c0 -5 -366 -374 -812 -820 l-813 -813 -817 0 -818 0 0
-1532 0 -1533 -817 -817 c-450 -450 -821 -818 -825 -818 -5 0 -8 1058 -8 2350
l0 2350 -1225 0 -1225 0 0 820 0 820 3680 0 c2024 0 3680 -3 3680 -7z m2895
-21 c447 -72 783 -199 1127 -428 601 -399 1040 -999 1213 -1656 162 -619 114
-1317 -130 -1888 -186 -436 -532 -868 -940 -1175 -297 -224 -625 -382 -973
-469 -305 -76 -340 -79 -1067 -83 -540 -4 -675 -2 -800 11 -549 58 -1024 252
-1457 598 -132 105 -371 344 -476 476 -345 433 -539 904 -598 1457 -32 295 -9
695 55 980 138 614 492 1166 1021 1592 403 325 856 519 1370 587 176 24 163
23 865 21 618 -1 668 -3 790 -23z m7802 13 c391 -52 721 -211 1011 -490 188
-181 300 -331 402 -540 132 -271 189 -552 177 -870 -9 -229 -49 -423 -128
-620 -178 -445 -581 -846 -1032 -1025 l-59 -23 1074 -1074 1073 -1073 -1165 0
-1165 0 -1752 1752 -1753 1753 0 -2058 c0 -1131 -3 -2057 -7 -2057 -5 0 -374
366 -820 812 l-813 813 0 2357 0 2358 2419 0 c2126 0 2434 -2 2538 -15z m9363
8 c0 -5 -366 -374 -812 -820 l-813 -813 -1470 0 c-969 0 -1499 -4 -1555 -11
-276 -34 -504 -146 -709 -348 -176 -173 -294 -393 -342 -636 -21 -105 -18
-378 5 -485 51 -236 160 -435 336 -610 170 -171 355 -275 590 -333 83 -21 105
-21 1203 -24 l1117 -4 0 201 0 200 -1025 0 -1025 0 2 823 3 822 1840 0 1840 0
3 -1843 2 -1842 -1937 0 c-1628 0 -1960 3 -2075 15 -544 57 -1020 254 -1450
597 -132 105 -371 344 -476 476 -345 433 -539 904 -598 1457 -32 295 -9 695
55 980 138 614 492 1166 1021 1592 440 355 963 562 1530 606 92 7 4740 7 4740
0z m3705 -21 c447 -72 783 -199 1127 -428 601 -399 1040 -999 1213 -1656 162
-619 114 -1317 -130 -1888 -186 -436 -532 -868 -940 -1175 -297 -224 -625
-382 -973 -469 -305 -76 -340 -79 -1067 -83 -540 -4 -675 -2 -800 11 -549 58
-1024 252 -1457 598 -132 105 -371 344 -476 476 -345 433 -539 904 -598 1457
-32 295 -9 695 55 980 138 614 492 1166 1021 1592 403 325 856 519 1370 587
176 24 163 23 865 21 618 -1 668 -3 790 -23z"/>
<path d="M9366 6569 c-264 -35 -496 -151 -695 -348 -176 -173 -294 -393 -342
-636 -21 -105 -18 -378 5 -485 100 -463 459 -829 926 -943 79 -19 120 -21 629
-24 461 -4 560 -2 652 12 274 40 473 144 684 359 132 135 203 237 260 377 102
252 120 537 50 799 -100 374 -420 714 -784 835 -177 58 -172 58 -766 60 -302
2 -581 -1 -619 -6z"/>
<path d="M15270 6380 l0 -200 1560 0 c1539 0 1561 0 1600 20 79 40 124 142
101 228 -15 53 -64 110 -116 133 -38 18 -112 19 -1592 19 l-1553 0 0 -200z"/>
<path d="M30236 6569 c-264 -35 -496 -151 -695 -348 -176 -173 -294 -393 -342
-636 -21 -105 -18 -378 5 -485 100 -463 459 -829 926 -943 79 -19 120 -21 629
-24 461 -4 560 -2 652 12 274 40 473 144 684 359 132 135 203 237 260 377 102
252 120 537 50 799 -100 374 -420 714 -784 835 -177 58 -172 58 -766 60 -302
2 -581 -1 -619 -6z"/>
</g>
</svg>
